<mxfile host="app.diagrams.net" modified="2023-08-08T11:35:27.632Z" agent="Mozilla/5.0 (Windows NT 10.0; Win64; x64) AppleWebKit/537.36 (KHTML, like Gecko) Chrome/115.0.0.0 Safari/537.36" etag="7kGRIbU1VtpueZRE1CYw" version="21.6.6" type="device">
  <diagram name="PÃ¡gina-1" id="tvkSS4rMcff3ueoVKAWK">
    <mxGraphModel dx="2440" dy="892" grid="1" gridSize="10" guides="1" tooltips="1" connect="1" arrows="1" fold="1" page="1" pageScale="1" pageWidth="827" pageHeight="1169" math="0" shadow="0">
      <root>
        <mxCell id="0" />
        <mxCell id="1" parent="0" />
        <mxCell id="QUkeyodenucUo9oFleA2-39" style="edgeStyle=orthogonalEdgeStyle;rounded=0;orthogonalLoop=1;jettySize=auto;html=1;entryX=-0.027;entryY=0.505;entryDx=0;entryDy=0;entryPerimeter=0;endArrow=none;endFill=0;" edge="1" parent="1" source="QUkeyodenucUo9oFleA2-12" target="QUkeyodenucUo9oFleA2-38">
          <mxGeometry relative="1" as="geometry" />
        </mxCell>
        <mxCell id="QUkeyodenucUo9oFleA2-12" value="PAIS" style="whiteSpace=wrap;html=1;align=center;" vertex="1" parent="1">
          <mxGeometry x="90" y="145" width="100" height="40" as="geometry" />
        </mxCell>
        <mxCell id="QUkeyodenucUo9oFleA2-26" style="edgeStyle=orthogonalEdgeStyle;rounded=0;orthogonalLoop=1;jettySize=auto;html=1;exitX=0.5;exitY=1;exitDx=0;exitDy=0;entryX=1;entryY=0.25;entryDx=0;entryDy=0;endArrow=none;endFill=0;" edge="1" parent="1" source="QUkeyodenucUo9oFleA2-13" target="QUkeyodenucUo9oFleA2-12">
          <mxGeometry relative="1" as="geometry" />
        </mxCell>
        <mxCell id="QUkeyodenucUo9oFleA2-13" value="codigo" style="ellipse;whiteSpace=wrap;html=1;align=center;fontStyle=4;" vertex="1" parent="1">
          <mxGeometry x="210" y="90" width="60" height="30" as="geometry" />
        </mxCell>
        <mxCell id="QUkeyodenucUo9oFleA2-27" style="edgeStyle=orthogonalEdgeStyle;rounded=0;orthogonalLoop=1;jettySize=auto;html=1;exitX=0.5;exitY=1;exitDx=0;exitDy=0;entryX=0.587;entryY=0.005;entryDx=0;entryDy=0;entryPerimeter=0;endArrow=none;endFill=0;" edge="1" parent="1" source="QUkeyodenucUo9oFleA2-14" target="QUkeyodenucUo9oFleA2-12">
          <mxGeometry relative="1" as="geometry" />
        </mxCell>
        <mxCell id="QUkeyodenucUo9oFleA2-14" value="alfa_2" style="ellipse;whiteSpace=wrap;html=1;align=center;fontStyle=4" vertex="1" parent="1">
          <mxGeometry x="120" y="85" width="60" height="30" as="geometry" />
        </mxCell>
        <mxCell id="QUkeyodenucUo9oFleA2-33" style="edgeStyle=orthogonalEdgeStyle;rounded=0;orthogonalLoop=1;jettySize=auto;html=1;exitX=0.5;exitY=1;exitDx=0;exitDy=0;entryX=0;entryY=0.5;entryDx=0;entryDy=0;endArrow=none;endFill=0;" edge="1" parent="1" source="QUkeyodenucUo9oFleA2-15" target="QUkeyodenucUo9oFleA2-12">
          <mxGeometry relative="1" as="geometry" />
        </mxCell>
        <mxCell id="QUkeyodenucUo9oFleA2-15" value="alfa_3" style="ellipse;whiteSpace=wrap;html=1;align=center;fontStyle=4" vertex="1" parent="1">
          <mxGeometry x="30" y="85" width="60" height="40" as="geometry" />
        </mxCell>
        <mxCell id="QUkeyodenucUo9oFleA2-30" value="" style="edgeStyle=orthogonalEdgeStyle;rounded=0;orthogonalLoop=1;jettySize=auto;html=1;endArrow=none;endFill=0;" edge="1" parent="1" source="QUkeyodenucUo9oFleA2-16" target="QUkeyodenucUo9oFleA2-12">
          <mxGeometry relative="1" as="geometry" />
        </mxCell>
        <mxCell id="QUkeyodenucUo9oFleA2-16" value="nombre" style="ellipse;whiteSpace=wrap;html=1;align=center;fontStyle=4" vertex="1" parent="1">
          <mxGeometry x="10" y="190" width="60" height="30" as="geometry" />
        </mxCell>
        <mxCell id="QUkeyodenucUo9oFleA2-19" value="MODELO ENTIDAD-RELACION&lt;br&gt;- Biblioteca -" style="text;strokeColor=none;fillColor=none;spacingLeft=4;spacingRight=4;overflow=hidden;rotatable=0;points=[[0,0.5],[1,0.5]];portConstraint=eastwest;fontSize=12;whiteSpace=wrap;html=1;align=center;" vertex="1" parent="1">
          <mxGeometry x="270" y="20" width="250" height="30" as="geometry" />
        </mxCell>
        <mxCell id="QUkeyodenucUo9oFleA2-36" value="PK" style="text;strokeColor=none;fillColor=none;spacingLeft=4;spacingRight=4;overflow=hidden;rotatable=0;points=[[0,0.5],[1,0.5]];portConstraint=eastwest;fontSize=12;whiteSpace=wrap;html=1;" vertex="1" parent="1">
          <mxGeometry x="240" y="120" width="40" height="30" as="geometry" />
        </mxCell>
        <mxCell id="QUkeyodenucUo9oFleA2-40" style="edgeStyle=orthogonalEdgeStyle;rounded=0;orthogonalLoop=1;jettySize=auto;html=1;entryX=0;entryY=0.5;entryDx=0;entryDy=0;endArrow=none;endFill=0;" edge="1" parent="1" source="QUkeyodenucUo9oFleA2-38" target="QUkeyodenucUo9oFleA2-43">
          <mxGeometry relative="1" as="geometry">
            <mxPoint x="437.19999999999993" y="167" as="targetPoint" />
          </mxGeometry>
        </mxCell>
        <mxCell id="QUkeyodenucUo9oFleA2-38" value="NACIDO_EN" style="shape=rhombus;perimeter=rhombusPerimeter;whiteSpace=wrap;html=1;align=center;" vertex="1" parent="1">
          <mxGeometry x="270" y="145" width="104" height="40" as="geometry" />
        </mxCell>
        <mxCell id="QUkeyodenucUo9oFleA2-43" value="AUTOR" style="whiteSpace=wrap;html=1;align=center;" vertex="1" parent="1">
          <mxGeometry x="517" y="145" width="100" height="40" as="geometry" />
        </mxCell>
        <mxCell id="QUkeyodenucUo9oFleA2-45" value="(0, n)" style="text;strokeColor=none;fillColor=none;spacingLeft=4;spacingRight=4;overflow=hidden;rotatable=0;points=[[0,0.5],[1,0.5]];portConstraint=eastwest;fontSize=12;whiteSpace=wrap;html=1;" vertex="1" parent="1">
          <mxGeometry x="190" y="160" width="40" height="30" as="geometry" />
        </mxCell>
        <mxCell id="QUkeyodenucUo9oFleA2-46" value="(0,1)" style="text;strokeColor=none;fillColor=none;spacingLeft=4;spacingRight=4;overflow=hidden;rotatable=0;points=[[0,0.5],[1,0.5]];portConstraint=eastwest;fontSize=12;whiteSpace=wrap;html=1;" vertex="1" parent="1">
          <mxGeometry x="477" y="160" width="40" height="30" as="geometry" />
        </mxCell>
        <mxCell id="QUkeyodenucUo9oFleA2-62" style="edgeStyle=orthogonalEdgeStyle;rounded=0;orthogonalLoop=1;jettySize=auto;html=1;exitX=0.5;exitY=0;exitDx=0;exitDy=0;entryX=0.617;entryY=0.958;entryDx=0;entryDy=0;entryPerimeter=0;startArrow=none;startFill=0;endArrow=none;endFill=0;" edge="1" parent="1" source="QUkeyodenucUo9oFleA2-48" target="QUkeyodenucUo9oFleA2-43">
          <mxGeometry relative="1" as="geometry" />
        </mxCell>
        <mxCell id="QUkeyodenucUo9oFleA2-48" value="retrato" style="ellipse;whiteSpace=wrap;html=1;align=center;" vertex="1" parent="1">
          <mxGeometry x="580" y="215" width="60" height="25" as="geometry" />
        </mxCell>
        <mxCell id="QUkeyodenucUo9oFleA2-63" style="edgeStyle=orthogonalEdgeStyle;rounded=0;orthogonalLoop=1;jettySize=auto;html=1;exitX=1;exitY=0.5;exitDx=0;exitDy=0;entryX=0.213;entryY=1;entryDx=0;entryDy=0;entryPerimeter=0;startArrow=none;startFill=0;endArrow=none;endFill=0;" edge="1" parent="1" source="QUkeyodenucUo9oFleA2-49" target="QUkeyodenucUo9oFleA2-43">
          <mxGeometry relative="1" as="geometry">
            <Array as="points">
              <mxPoint x="530" y="223" />
              <mxPoint x="530" y="185" />
            </Array>
          </mxGeometry>
        </mxCell>
        <mxCell id="QUkeyodenucUo9oFleA2-49" value="genero" style="ellipse;whiteSpace=wrap;html=1;align=center;" vertex="1" parent="1">
          <mxGeometry x="440" y="210" width="60" height="25" as="geometry" />
        </mxCell>
        <mxCell id="QUkeyodenucUo9oFleA2-61" style="edgeStyle=orthogonalEdgeStyle;rounded=0;orthogonalLoop=1;jettySize=auto;html=1;exitX=0;exitY=0.5;exitDx=0;exitDy=0;entryX=1;entryY=1;entryDx=0;entryDy=0;startArrow=none;startFill=0;endArrow=none;endFill=0;" edge="1" parent="1" source="QUkeyodenucUo9oFleA2-50" target="QUkeyodenucUo9oFleA2-43">
          <mxGeometry relative="1" as="geometry" />
        </mxCell>
        <mxCell id="QUkeyodenucUo9oFleA2-50" value="biografia" style="ellipse;whiteSpace=wrap;html=1;align=center;" vertex="1" parent="1">
          <mxGeometry x="677" y="190" width="60" height="25" as="geometry" />
        </mxCell>
        <mxCell id="QUkeyodenucUo9oFleA2-56" style="edgeStyle=orthogonalEdgeStyle;rounded=0;orthogonalLoop=1;jettySize=auto;html=1;entryX=0.68;entryY=0.008;entryDx=0;entryDy=0;entryPerimeter=0;startArrow=none;startFill=0;endArrow=none;endFill=0;" edge="1" parent="1" source="QUkeyodenucUo9oFleA2-51" target="QUkeyodenucUo9oFleA2-43">
          <mxGeometry relative="1" as="geometry" />
        </mxCell>
        <mxCell id="QUkeyodenucUo9oFleA2-51" value="nombre" style="ellipse;whiteSpace=wrap;html=1;align=center;" vertex="1" parent="1">
          <mxGeometry x="507" y="85" width="60" height="27.5" as="geometry" />
        </mxCell>
        <mxCell id="QUkeyodenucUo9oFleA2-58" style="edgeStyle=orthogonalEdgeStyle;rounded=0;orthogonalLoop=1;jettySize=auto;html=1;exitX=0;exitY=0.5;exitDx=0;exitDy=0;entryX=1;entryY=0;entryDx=0;entryDy=0;startArrow=none;startFill=0;endArrow=none;endFill=0;" edge="1" parent="1" source="QUkeyodenucUo9oFleA2-52" target="QUkeyodenucUo9oFleA2-43">
          <mxGeometry relative="1" as="geometry" />
        </mxCell>
        <mxCell id="QUkeyodenucUo9oFleA2-52" value="apellidos" style="ellipse;whiteSpace=wrap;html=1;align=center;" vertex="1" parent="1">
          <mxGeometry x="627" y="95" width="60" height="25" as="geometry" />
        </mxCell>
        <mxCell id="QUkeyodenucUo9oFleA2-64" style="edgeStyle=orthogonalEdgeStyle;rounded=0;orthogonalLoop=1;jettySize=auto;html=1;exitX=0;exitY=0.5;exitDx=0;exitDy=0;entryX=1.027;entryY=0.292;entryDx=0;entryDy=0;entryPerimeter=0;endArrow=none;endFill=0;" edge="1" parent="1" source="QUkeyodenucUo9oFleA2-53" target="QUkeyodenucUo9oFleA2-43">
          <mxGeometry relative="1" as="geometry" />
        </mxCell>
        <mxCell id="QUkeyodenucUo9oFleA2-53" value="fecha_nacimiento" style="ellipse;whiteSpace=wrap;html=1;align=center;" vertex="1" parent="1">
          <mxGeometry x="717" y="145" width="110" height="25" as="geometry" />
        </mxCell>
        <mxCell id="QUkeyodenucUo9oFleA2-65" value="(0,1)" style="text;strokeColor=none;fillColor=none;spacingLeft=4;spacingRight=4;overflow=hidden;rotatable=0;points=[[0,0.5],[1,0.5]];portConstraint=eastwest;fontSize=12;whiteSpace=wrap;html=1;" vertex="1" parent="1">
          <mxGeometry x="647" y="195" width="40" height="30" as="geometry" />
        </mxCell>
        <mxCell id="QUkeyodenucUo9oFleA2-66" value="(0,1)" style="text;strokeColor=none;fillColor=none;spacingLeft=4;spacingRight=4;overflow=hidden;rotatable=0;points=[[0,0.5],[1,0.5]];portConstraint=eastwest;fontSize=12;whiteSpace=wrap;html=1;" vertex="1" parent="1">
          <mxGeometry x="687" y="130" width="40" height="30" as="geometry" />
        </mxCell>
        <mxCell id="QUkeyodenucUo9oFleA2-67" value="(0,1)" style="text;strokeColor=none;fillColor=none;spacingLeft=4;spacingRight=4;overflow=hidden;rotatable=0;points=[[0,0.5],[1,0.5]];portConstraint=eastwest;fontSize=12;whiteSpace=wrap;html=1;" vertex="1" parent="1">
          <mxGeometry x="617" y="115" width="40" height="30" as="geometry" />
        </mxCell>
        <mxCell id="QUkeyodenucUo9oFleA2-69" value="EDITORIAL" style="whiteSpace=wrap;html=1;align=center;" vertex="1" parent="1">
          <mxGeometry x="100" y="330" width="100" height="40" as="geometry" />
        </mxCell>
        <mxCell id="QUkeyodenucUo9oFleA2-86" style="edgeStyle=orthogonalEdgeStyle;rounded=0;orthogonalLoop=1;jettySize=auto;html=1;entryX=0.5;entryY=1;entryDx=0;entryDy=0;endArrow=none;endFill=0;" edge="1" parent="1" source="QUkeyodenucUo9oFleA2-70" target="QUkeyodenucUo9oFleA2-69">
          <mxGeometry relative="1" as="geometry" />
        </mxCell>
        <mxCell id="QUkeyodenucUo9oFleA2-70" value="web" style="ellipse;whiteSpace=wrap;html=1;align=center;" vertex="1" parent="1">
          <mxGeometry x="110" y="395" width="80" height="30" as="geometry" />
        </mxCell>
        <mxCell id="QUkeyodenucUo9oFleA2-87" style="edgeStyle=orthogonalEdgeStyle;rounded=0;orthogonalLoop=1;jettySize=auto;html=1;exitX=0;exitY=0.5;exitDx=0;exitDy=0;entryX=0.908;entryY=0.99;entryDx=0;entryDy=0;entryPerimeter=0;endArrow=none;endFill=0;" edge="1" parent="1" source="QUkeyodenucUo9oFleA2-71" target="QUkeyodenucUo9oFleA2-69">
          <mxGeometry relative="1" as="geometry" />
        </mxCell>
        <mxCell id="QUkeyodenucUo9oFleA2-71" value="telefono" style="ellipse;whiteSpace=wrap;html=1;align=center;" vertex="1" parent="1">
          <mxGeometry x="250" y="375" width="80" height="30" as="geometry" />
        </mxCell>
        <mxCell id="QUkeyodenucUo9oFleA2-83" style="edgeStyle=orthogonalEdgeStyle;rounded=0;orthogonalLoop=1;jettySize=auto;html=1;entryX=0.104;entryY=0.04;entryDx=0;entryDy=0;entryPerimeter=0;endArrow=none;endFill=0;" edge="1" parent="1" source="QUkeyodenucUo9oFleA2-72" target="QUkeyodenucUo9oFleA2-69">
          <mxGeometry relative="1" as="geometry" />
        </mxCell>
        <mxCell id="QUkeyodenucUo9oFleA2-72" value="razon_social" style="ellipse;whiteSpace=wrap;html=1;align=center;" vertex="1" parent="1">
          <mxGeometry x="10" y="285" width="80" height="30" as="geometry" />
        </mxCell>
        <mxCell id="QUkeyodenucUo9oFleA2-84" style="edgeStyle=orthogonalEdgeStyle;rounded=0;orthogonalLoop=1;jettySize=auto;html=1;exitX=1;exitY=0.5;exitDx=0;exitDy=0;entryX=0;entryY=0.38;entryDx=0;entryDy=0;entryPerimeter=0;endArrow=none;endFill=0;" edge="1" parent="1" source="QUkeyodenucUo9oFleA2-73" target="QUkeyodenucUo9oFleA2-69">
          <mxGeometry relative="1" as="geometry" />
        </mxCell>
        <mxCell id="QUkeyodenucUo9oFleA2-73" value="direccion" style="ellipse;whiteSpace=wrap;html=1;align=center;" vertex="1" parent="1">
          <mxGeometry x="10" y="330" width="80" height="30" as="geometry" />
        </mxCell>
        <mxCell id="QUkeyodenucUo9oFleA2-85" style="edgeStyle=orthogonalEdgeStyle;rounded=0;orthogonalLoop=1;jettySize=auto;html=1;exitX=1;exitY=0;exitDx=0;exitDy=0;entryX=0.064;entryY=0.98;entryDx=0;entryDy=0;entryPerimeter=0;endArrow=none;endFill=0;" edge="1" parent="1" source="QUkeyodenucUo9oFleA2-74" target="QUkeyodenucUo9oFleA2-69">
          <mxGeometry relative="1" as="geometry" />
        </mxCell>
        <mxCell id="QUkeyodenucUo9oFleA2-74" value="email" style="ellipse;whiteSpace=wrap;html=1;align=center;" vertex="1" parent="1">
          <mxGeometry x="10" y="375" width="80" height="30" as="geometry" />
        </mxCell>
        <mxCell id="QUkeyodenucUo9oFleA2-77" style="edgeStyle=orthogonalEdgeStyle;rounded=0;orthogonalLoop=1;jettySize=auto;html=1;entryX=0.6;entryY=0.96;entryDx=0;entryDy=0;entryPerimeter=0;endArrow=none;endFill=0;" edge="1" parent="1" source="QUkeyodenucUo9oFleA2-76" target="QUkeyodenucUo9oFleA2-12">
          <mxGeometry relative="1" as="geometry" />
        </mxCell>
        <mxCell id="QUkeyodenucUo9oFleA2-78" style="edgeStyle=orthogonalEdgeStyle;rounded=0;orthogonalLoop=1;jettySize=auto;html=1;exitX=0.5;exitY=1;exitDx=0;exitDy=0;entryX=0.5;entryY=0;entryDx=0;entryDy=0;endArrow=none;endFill=0;" edge="1" parent="1" source="QUkeyodenucUo9oFleA2-76" target="QUkeyodenucUo9oFleA2-69">
          <mxGeometry relative="1" as="geometry" />
        </mxCell>
        <mxCell id="QUkeyodenucUo9oFleA2-76" value="UBICADO_EN" style="shape=rhombus;perimeter=rhombusPerimeter;whiteSpace=wrap;html=1;align=center;" vertex="1" parent="1">
          <mxGeometry x="90" y="240" width="120" height="60" as="geometry" />
        </mxCell>
        <mxCell id="QUkeyodenucUo9oFleA2-88" value="(1,1)" style="text;strokeColor=none;fillColor=none;spacingLeft=4;spacingRight=4;overflow=hidden;rotatable=0;points=[[0,0.5],[1,0.5]];portConstraint=eastwest;fontSize=12;whiteSpace=wrap;html=1;" vertex="1" parent="1">
          <mxGeometry x="150" y="300" width="40" height="30" as="geometry" />
        </mxCell>
        <mxCell id="QUkeyodenucUo9oFleA2-89" value="(0, n)" style="text;strokeColor=none;fillColor=none;spacingLeft=4;spacingRight=4;overflow=hidden;rotatable=0;points=[[0,0.5],[1,0.5]];portConstraint=eastwest;fontSize=12;whiteSpace=wrap;html=1;" vertex="1" parent="1">
          <mxGeometry x="150" y="180" width="40" height="30" as="geometry" />
        </mxCell>
        <mxCell id="QUkeyodenucUo9oFleA2-90" value="(0,1)" style="text;strokeColor=none;fillColor=none;spacingLeft=4;spacingRight=4;overflow=hidden;rotatable=0;points=[[0,0.5],[1,0.5]];portConstraint=eastwest;fontSize=12;whiteSpace=wrap;html=1;" vertex="1" parent="1">
          <mxGeometry x="220" y="365" width="40" height="30" as="geometry" />
        </mxCell>
        <mxCell id="QUkeyodenucUo9oFleA2-92" value="(0,1)" style="text;strokeColor=none;fillColor=none;spacingLeft=4;spacingRight=4;overflow=hidden;rotatable=0;points=[[0,0.5],[1,0.5]];portConstraint=eastwest;fontSize=12;whiteSpace=wrap;html=1;" vertex="1" parent="1">
          <mxGeometry x="70" y="355" width="40" height="30" as="geometry" />
        </mxCell>
        <mxCell id="QUkeyodenucUo9oFleA2-93" value="(0,1)" style="text;strokeColor=none;fillColor=none;spacingLeft=4;spacingRight=4;overflow=hidden;rotatable=0;points=[[0,0.5],[1,0.5]];portConstraint=eastwest;fontSize=12;whiteSpace=wrap;html=1;" vertex="1" parent="1">
          <mxGeometry x="150" y="370" width="40" height="30" as="geometry" />
        </mxCell>
        <mxCell id="QUkeyodenucUo9oFleA2-94" value="(0,1)" style="text;strokeColor=none;fillColor=none;spacingLeft=4;spacingRight=4;overflow=hidden;rotatable=0;points=[[0,0.5],[1,0.5]];portConstraint=eastwest;fontSize=12;whiteSpace=wrap;html=1;" vertex="1" parent="1">
          <mxGeometry x="70" y="315" width="40" height="30" as="geometry" />
        </mxCell>
        <mxCell id="QUkeyodenucUo9oFleA2-98" value="LIBRO" style="whiteSpace=wrap;html=1;align=center;" vertex="1" parent="1">
          <mxGeometry x="517" y="345" width="100" height="40" as="geometry" />
        </mxCell>
        <mxCell id="QUkeyodenucUo9oFleA2-105" style="edgeStyle=orthogonalEdgeStyle;rounded=0;orthogonalLoop=1;jettySize=auto;html=1;entryX=-0.01;entryY=0.558;entryDx=0;entryDy=0;entryPerimeter=0;endArrow=none;endFill=0;" edge="1" parent="1" source="QUkeyodenucUo9oFleA2-99" target="QUkeyodenucUo9oFleA2-98">
          <mxGeometry relative="1" as="geometry" />
        </mxCell>
        <mxCell id="QUkeyodenucUo9oFleA2-106" style="edgeStyle=orthogonalEdgeStyle;rounded=0;orthogonalLoop=1;jettySize=auto;html=1;entryX=1;entryY=0.25;entryDx=0;entryDy=0;endArrow=none;endFill=0;" edge="1" parent="1" source="QUkeyodenucUo9oFleA2-99" target="QUkeyodenucUo9oFleA2-69">
          <mxGeometry relative="1" as="geometry" />
        </mxCell>
        <mxCell id="QUkeyodenucUo9oFleA2-99" value="EDITADO_POR" style="shape=rhombus;perimeter=rhombusPerimeter;whiteSpace=wrap;html=1;align=center;" vertex="1" parent="1">
          <mxGeometry x="320" y="310" width="120" height="60" as="geometry" />
        </mxCell>
        <mxCell id="QUkeyodenucUo9oFleA2-101" value="" style="edgeStyle=orthogonalEdgeStyle;rounded=0;orthogonalLoop=1;jettySize=auto;html=1;endArrow=none;endFill=0;" edge="1" parent="1" source="QUkeyodenucUo9oFleA2-100" target="QUkeyodenucUo9oFleA2-98">
          <mxGeometry relative="1" as="geometry" />
        </mxCell>
        <mxCell id="QUkeyodenucUo9oFleA2-103" value="" style="edgeStyle=orthogonalEdgeStyle;rounded=0;orthogonalLoop=1;jettySize=auto;html=1;entryX=0.417;entryY=1;entryDx=0;entryDy=0;entryPerimeter=0;endArrow=none;endFill=0;" edge="1" parent="1" source="QUkeyodenucUo9oFleA2-100" target="QUkeyodenucUo9oFleA2-43">
          <mxGeometry relative="1" as="geometry" />
        </mxCell>
        <mxCell id="QUkeyodenucUo9oFleA2-100" value="ESCRITO_POR" style="shape=rhombus;perimeter=rhombusPerimeter;whiteSpace=wrap;html=1;align=center;" vertex="1" parent="1">
          <mxGeometry x="507" y="255" width="120" height="60" as="geometry" />
        </mxCell>
        <mxCell id="QUkeyodenucUo9oFleA2-107" value="(0,1)" style="text;strokeColor=none;fillColor=none;spacingLeft=4;spacingRight=4;overflow=hidden;rotatable=0;points=[[0,0.5],[1,0.5]];portConstraint=eastwest;fontSize=12;whiteSpace=wrap;html=1;" vertex="1" parent="1">
          <mxGeometry x="200" y="315" width="40" height="30" as="geometry" />
        </mxCell>
        <mxCell id="QUkeyodenucUo9oFleA2-108" value="(0,1)" style="text;strokeColor=none;fillColor=none;spacingLeft=4;spacingRight=4;overflow=hidden;rotatable=0;points=[[0,0.5],[1,0.5]];portConstraint=eastwest;fontSize=12;whiteSpace=wrap;html=1;" vertex="1" parent="1">
          <mxGeometry x="480" y="340" width="40" height="30" as="geometry" />
        </mxCell>
        <mxCell id="QUkeyodenucUo9oFleA2-110" value="(1,1)" style="text;strokeColor=none;fillColor=none;spacingLeft=4;spacingRight=4;overflow=hidden;rotatable=0;points=[[0,0.5],[1,0.5]];portConstraint=eastwest;fontSize=12;whiteSpace=wrap;html=1;" vertex="1" parent="1">
          <mxGeometry x="567" y="315" width="40" height="30" as="geometry" />
        </mxCell>
        <mxCell id="QUkeyodenucUo9oFleA2-111" value="(0,n)" style="text;strokeColor=none;fillColor=none;spacingLeft=4;spacingRight=4;overflow=hidden;rotatable=0;points=[[0,0.5],[1,0.5]];portConstraint=eastwest;fontSize=12;whiteSpace=wrap;html=1;" vertex="1" parent="1">
          <mxGeometry x="530" y="218" width="40" height="30" as="geometry" />
        </mxCell>
        <mxCell id="QUkeyodenucUo9oFleA2-120" style="edgeStyle=orthogonalEdgeStyle;rounded=0;orthogonalLoop=1;jettySize=auto;html=1;startArrow=none;startFill=0;endArrow=none;endFill=0;" edge="1" parent="1" source="QUkeyodenucUo9oFleA2-113">
          <mxGeometry relative="1" as="geometry">
            <mxPoint x="560" y="340" as="targetPoint" />
          </mxGeometry>
        </mxCell>
        <mxCell id="QUkeyodenucUo9oFleA2-113" value="titulo" style="ellipse;whiteSpace=wrap;html=1;align=center;" vertex="1" parent="1">
          <mxGeometry x="480" y="310" width="60" height="30" as="geometry" />
        </mxCell>
        <mxCell id="QUkeyodenucUo9oFleA2-125" style="edgeStyle=orthogonalEdgeStyle;rounded=0;orthogonalLoop=1;jettySize=auto;html=1;startArrow=none;startFill=0;endArrow=none;endFill=0;" edge="1" parent="1" source="QUkeyodenucUo9oFleA2-114">
          <mxGeometry relative="1" as="geometry">
            <mxPoint x="540" y="390" as="targetPoint" />
          </mxGeometry>
        </mxCell>
        <mxCell id="QUkeyodenucUo9oFleA2-114" value="annio_publicacion" style="ellipse;whiteSpace=wrap;html=1;align=center;" vertex="1" parent="1">
          <mxGeometry x="410" y="390" width="110" height="30" as="geometry" />
        </mxCell>
        <mxCell id="QUkeyodenucUo9oFleA2-126" style="edgeStyle=orthogonalEdgeStyle;rounded=0;orthogonalLoop=1;jettySize=auto;html=1;startArrow=none;startFill=0;endArrow=none;endFill=0;" edge="1" parent="1" source="QUkeyodenucUo9oFleA2-115">
          <mxGeometry relative="1" as="geometry">
            <mxPoint x="550" y="390" as="targetPoint" />
          </mxGeometry>
        </mxCell>
        <mxCell id="QUkeyodenucUo9oFleA2-115" value="observacion" style="ellipse;whiteSpace=wrap;html=1;align=center;" vertex="1" parent="1">
          <mxGeometry x="450" y="430" width="77" height="30" as="geometry" />
        </mxCell>
        <mxCell id="QUkeyodenucUo9oFleA2-124" style="edgeStyle=orthogonalEdgeStyle;rounded=0;orthogonalLoop=1;jettySize=auto;html=1;exitX=0;exitY=0.5;exitDx=0;exitDy=0;entryX=0.75;entryY=1;entryDx=0;entryDy=0;startArrow=none;startFill=0;endArrow=none;endFill=0;" edge="1" parent="1" source="QUkeyodenucUo9oFleA2-116" target="QUkeyodenucUo9oFleA2-98">
          <mxGeometry relative="1" as="geometry" />
        </mxCell>
        <mxCell id="QUkeyodenucUo9oFleA2-116" value="sinopsis" style="ellipse;whiteSpace=wrap;html=1;align=center;" vertex="1" parent="1">
          <mxGeometry x="617" y="420" width="60" height="30" as="geometry" />
        </mxCell>
        <mxCell id="QUkeyodenucUo9oFleA2-123" style="edgeStyle=orthogonalEdgeStyle;rounded=0;orthogonalLoop=1;jettySize=auto;html=1;exitX=0;exitY=0.5;exitDx=0;exitDy=0;startArrow=none;startFill=0;endArrow=none;endFill=0;" edge="1" parent="1" source="QUkeyodenucUo9oFleA2-117">
          <mxGeometry relative="1" as="geometry">
            <mxPoint x="610" y="390" as="targetPoint" />
          </mxGeometry>
        </mxCell>
        <mxCell id="QUkeyodenucUo9oFleA2-117" value="portada" style="ellipse;whiteSpace=wrap;html=1;align=center;" vertex="1" parent="1">
          <mxGeometry x="627" y="385" width="60" height="30" as="geometry" />
        </mxCell>
        <mxCell id="QUkeyodenucUo9oFleA2-122" style="edgeStyle=orthogonalEdgeStyle;rounded=0;orthogonalLoop=1;jettySize=auto;html=1;exitX=0;exitY=1;exitDx=0;exitDy=0;startArrow=none;startFill=0;endArrow=none;endFill=0;" edge="1" parent="1" source="QUkeyodenucUo9oFleA2-118">
          <mxGeometry relative="1" as="geometry">
            <mxPoint x="620" y="370.66666666666663" as="targetPoint" />
          </mxGeometry>
        </mxCell>
        <mxCell id="QUkeyodenucUo9oFleA2-118" value="genero" style="ellipse;whiteSpace=wrap;html=1;align=center;" vertex="1" parent="1">
          <mxGeometry x="657" y="345" width="60" height="30" as="geometry" />
        </mxCell>
        <mxCell id="QUkeyodenucUo9oFleA2-121" style="edgeStyle=orthogonalEdgeStyle;rounded=0;orthogonalLoop=1;jettySize=auto;html=1;exitX=0;exitY=1;exitDx=0;exitDy=0;entryX=0.983;entryY=0.989;entryDx=0;entryDy=0;entryPerimeter=0;startArrow=none;startFill=0;endArrow=none;endFill=0;" edge="1" parent="1" source="QUkeyodenucUo9oFleA2-119" target="QUkeyodenucUo9oFleA2-110">
          <mxGeometry relative="1" as="geometry">
            <Array as="points">
              <mxPoint x="632" y="336" />
              <mxPoint x="606" y="336" />
            </Array>
          </mxGeometry>
        </mxCell>
        <mxCell id="QUkeyodenucUo9oFleA2-119" value="tipo" style="ellipse;whiteSpace=wrap;html=1;align=center;" vertex="1" parent="1">
          <mxGeometry x="657" y="310" width="60" height="30" as="geometry" />
        </mxCell>
        <mxCell id="QUkeyodenucUo9oFleA2-130" value="(0,1)" style="text;strokeColor=none;fillColor=none;spacingLeft=4;spacingRight=4;overflow=hidden;rotatable=0;points=[[0,0.5],[1,0.5]];portConstraint=eastwest;fontSize=5;whiteSpace=wrap;html=1;" vertex="1" parent="1">
          <mxGeometry x="597" y="420" width="20" height="20" as="geometry" />
        </mxCell>
        <mxCell id="QUkeyodenucUo9oFleA2-131" value="(0,1)" style="text;strokeColor=none;fillColor=none;spacingLeft=4;spacingRight=4;overflow=hidden;rotatable=0;points=[[0,0.5],[1,0.5]];portConstraint=eastwest;fontSize=5;whiteSpace=wrap;html=1;" vertex="1" parent="1">
          <mxGeometry x="530" y="430" width="20" height="20" as="geometry" />
        </mxCell>
        <mxCell id="QUkeyodenucUo9oFleA2-133" value="(0,1)" style="text;strokeColor=none;fillColor=none;spacingLeft=4;spacingRight=4;overflow=hidden;rotatable=0;points=[[0,0.5],[1,0.5]];portConstraint=eastwest;fontSize=5;whiteSpace=wrap;html=1;" vertex="1" parent="1">
          <mxGeometry x="517" y="390" width="20" height="20" as="geometry" />
        </mxCell>
        <mxCell id="QUkeyodenucUo9oFleA2-137" style="edgeStyle=orthogonalEdgeStyle;rounded=0;orthogonalLoop=1;jettySize=auto;html=1;entryX=0.5;entryY=1;entryDx=0;entryDy=0;shape=link;" edge="1" parent="1" source="QUkeyodenucUo9oFleA2-135" target="QUkeyodenucUo9oFleA2-136">
          <mxGeometry relative="1" as="geometry">
            <Array as="points">
              <mxPoint x="560" y="540" />
              <mxPoint x="558" y="540" />
              <mxPoint x="558" y="570" />
            </Array>
          </mxGeometry>
        </mxCell>
        <mxCell id="QUkeyodenucUo9oFleA2-135" value="COPIA_LIBRO" style="shape=ext;margin=3;double=1;whiteSpace=wrap;html=1;align=center;" vertex="1" parent="1">
          <mxGeometry x="510" y="640" width="100" height="40" as="geometry" />
        </mxCell>
        <mxCell id="QUkeyodenucUo9oFleA2-139" value="" style="edgeStyle=orthogonalEdgeStyle;rounded=0;orthogonalLoop=1;jettySize=auto;html=1;entryX=0.437;entryY=0.979;entryDx=0;entryDy=0;entryPerimeter=0;endArrow=none;endFill=0;" edge="1" parent="1" source="QUkeyodenucUo9oFleA2-136" target="QUkeyodenucUo9oFleA2-98">
          <mxGeometry relative="1" as="geometry" />
        </mxCell>
        <mxCell id="QUkeyodenucUo9oFleA2-136" value="ES_COPIA_DE" style="shape=rhombus;double=1;perimeter=rhombusPerimeter;whiteSpace=wrap;html=1;align=center;" vertex="1" parent="1">
          <mxGeometry x="500" y="510" width="120" height="60" as="geometry" />
        </mxCell>
        <mxCell id="QUkeyodenucUo9oFleA2-140" value="(0,n)" style="text;strokeColor=none;fillColor=none;spacingLeft=4;spacingRight=4;overflow=hidden;rotatable=0;points=[[0,0.5],[1,0.5]];portConstraint=eastwest;fontSize=12;whiteSpace=wrap;html=1;" vertex="1" parent="1">
          <mxGeometry x="557" y="440" width="40" height="30" as="geometry" />
        </mxCell>
        <mxCell id="QUkeyodenucUo9oFleA2-141" value="(1,1)" style="text;strokeColor=none;fillColor=none;spacingLeft=4;spacingRight=4;overflow=hidden;rotatable=0;points=[[0,0.5],[1,0.5]];portConstraint=eastwest;fontSize=12;whiteSpace=wrap;html=1;" vertex="1" parent="1">
          <mxGeometry x="557" y="590" width="40" height="30" as="geometry" />
        </mxCell>
        <mxCell id="QUkeyodenucUo9oFleA2-147" style="edgeStyle=orthogonalEdgeStyle;rounded=0;orthogonalLoop=1;jettySize=auto;html=1;exitX=1;exitY=0.5;exitDx=0;exitDy=0;entryX=0.119;entryY=1.089;entryDx=0;entryDy=0;entryPerimeter=0;endArrow=none;endFill=0;" edge="1" parent="1" source="QUkeyodenucUo9oFleA2-142" target="QUkeyodenucUo9oFleA2-135">
          <mxGeometry relative="1" as="geometry">
            <Array as="points">
              <mxPoint x="500" y="700" />
              <mxPoint x="500" y="690" />
              <mxPoint x="522" y="690" />
            </Array>
          </mxGeometry>
        </mxCell>
        <mxCell id="QUkeyodenucUo9oFleA2-142" value="prestado" style="ellipse;whiteSpace=wrap;html=1;align=center;" vertex="1" parent="1">
          <mxGeometry x="374" y="680" width="100" height="40" as="geometry" />
        </mxCell>
        <mxCell id="QUkeyodenucUo9oFleA2-146" style="edgeStyle=orthogonalEdgeStyle;rounded=0;orthogonalLoop=1;jettySize=auto;html=1;entryX=0;entryY=0.25;entryDx=0;entryDy=0;endArrow=none;endFill=0;" edge="1" parent="1" source="QUkeyodenucUo9oFleA2-144" target="QUkeyodenucUo9oFleA2-135">
          <mxGeometry relative="1" as="geometry" />
        </mxCell>
        <mxCell id="QUkeyodenucUo9oFleA2-144" value="&lt;span style=&quot;border-bottom: 1px dotted&quot;&gt;num_copia&lt;/span&gt;" style="ellipse;whiteSpace=wrap;html=1;align=center;" vertex="1" parent="1">
          <mxGeometry x="377" y="610" width="100" height="40" as="geometry" />
        </mxCell>
        <mxCell id="QUkeyodenucUo9oFleA2-148" style="edgeStyle=orthogonalEdgeStyle;rounded=0;orthogonalLoop=1;jettySize=auto;html=1;exitX=0;exitY=0.5;exitDx=0;exitDy=0;entryX=1;entryY=0.5;entryDx=0;entryDy=0;endArrow=none;endFill=0;" edge="1" parent="1" source="QUkeyodenucUo9oFleA2-145" target="QUkeyodenucUo9oFleA2-135">
          <mxGeometry relative="1" as="geometry" />
        </mxCell>
        <mxCell id="QUkeyodenucUo9oFleA2-145" value="estado_conservacion" style="ellipse;whiteSpace=wrap;html=1;align=center;" vertex="1" parent="1">
          <mxGeometry x="640" y="670" width="130" height="40" as="geometry" />
        </mxCell>
        <mxCell id="QUkeyodenucUo9oFleA2-149" value="" style="shape=note;size=20;whiteSpace=wrap;html=1;" vertex="1" parent="1">
          <mxGeometry x="45" y="490" width="250" height="250" as="geometry" />
        </mxCell>
        <mxCell id="QUkeyodenucUo9oFleA2-150" value="MODELO_BASE" style="whiteSpace=wrap;html=1;align=center;" vertex="1" parent="1">
          <mxGeometry x="120" y="565" width="100" height="40" as="geometry" />
        </mxCell>
        <mxCell id="QUkeyodenucUo9oFleA2-159" style="edgeStyle=orthogonalEdgeStyle;rounded=0;orthogonalLoop=1;jettySize=auto;html=1;endArrow=none;endFill=0;" edge="1" parent="1" source="QUkeyodenucUo9oFleA2-151" target="QUkeyodenucUo9oFleA2-150">
          <mxGeometry relative="1" as="geometry" />
        </mxCell>
        <mxCell id="QUkeyodenucUo9oFleA2-151" value="id" style="ellipse;whiteSpace=wrap;html=1;align=center;fontStyle=4;" vertex="1" parent="1">
          <mxGeometry x="50" y="570" width="40" height="30" as="geometry" />
        </mxCell>
        <mxCell id="QUkeyodenucUo9oFleA2-158" style="edgeStyle=orthogonalEdgeStyle;rounded=0;orthogonalLoop=1;jettySize=auto;html=1;entryX=0.024;entryY=0.869;entryDx=0;entryDy=0;entryPerimeter=0;endArrow=none;endFill=0;" edge="1" parent="1" source="QUkeyodenucUo9oFleA2-152" target="QUkeyodenucUo9oFleA2-150">
          <mxGeometry relative="1" as="geometry" />
        </mxCell>
        <mxCell id="QUkeyodenucUo9oFleA2-152" value="is_active" style="ellipse;whiteSpace=wrap;html=1;align=center;" vertex="1" parent="1">
          <mxGeometry x="60" y="620" width="100" height="40" as="geometry" />
        </mxCell>
        <mxCell id="QUkeyodenucUo9oFleA2-157" style="edgeStyle=orthogonalEdgeStyle;rounded=0;orthogonalLoop=1;jettySize=auto;html=1;exitX=0.5;exitY=0;exitDx=0;exitDy=0;entryX=0.75;entryY=1;entryDx=0;entryDy=0;endArrow=none;endFill=0;" edge="1" parent="1" source="QUkeyodenucUo9oFleA2-153" target="QUkeyodenucUo9oFleA2-150">
          <mxGeometry relative="1" as="geometry">
            <Array as="points">
              <mxPoint x="180" y="605" />
            </Array>
          </mxGeometry>
        </mxCell>
        <mxCell id="QUkeyodenucUo9oFleA2-153" value="fecha_creacion" style="ellipse;whiteSpace=wrap;html=1;align=center;" vertex="1" parent="1">
          <mxGeometry x="130" y="680" width="100" height="40" as="geometry" />
        </mxCell>
        <mxCell id="QUkeyodenucUo9oFleA2-156" style="edgeStyle=orthogonalEdgeStyle;rounded=0;orthogonalLoop=1;jettySize=auto;html=1;exitX=0.5;exitY=0;exitDx=0;exitDy=0;entryX=1;entryY=0.5;entryDx=0;entryDy=0;endArrow=none;endFill=0;" edge="1" parent="1" source="QUkeyodenucUo9oFleA2-154" target="QUkeyodenucUo9oFleA2-150">
          <mxGeometry relative="1" as="geometry" />
        </mxCell>
        <mxCell id="QUkeyodenucUo9oFleA2-154" value="fecha_modificacion" style="ellipse;whiteSpace=wrap;html=1;align=center;" vertex="1" parent="1">
          <mxGeometry x="195" y="630" width="100" height="40" as="geometry" />
        </mxCell>
        <mxCell id="QUkeyodenucUo9oFleA2-160" value="Modelo del que hereda el resto" style="text;strokeColor=none;fillColor=none;spacingLeft=4;spacingRight=4;overflow=hidden;rotatable=0;points=[[0,0.5],[1,0.5]];portConstraint=eastwest;fontSize=12;whiteSpace=wrap;html=1;" vertex="1" parent="1">
          <mxGeometry x="70" y="510" width="210" height="30" as="geometry" />
        </mxCell>
      </root>
    </mxGraphModel>
  </diagram>
</mxfile>
